<svg xmlns="http://www.w3.org/2000/svg"></svg>
<svg xmlns="http://www.w3.org/2000/svg">
    <symbol id="adobe-reader-logo" viewBox="0 0 94.325 94.325">
       <path d="M33.808 19.657c-.439-.607-1.92-.453-1.896.918-.016.037.18 1.691 2.717 7.826.292-4.98-.062-7.666-.821-8.744zM50.982 54.215a300.599 300.599 0 0 1-13.901-14.898v.003l-.26-.297c-1.953 5.563-4.617 12.764-6.512 17.83 6.104-1.481 13.279-2.25 20.998-2.289l-.325-.349zM14.241 71.711c-.222.717.792 1.807 1.874.963.039-.01 1.243-1.16 4.618-6.877-4.154 2.76-6.088 4.658-6.492 5.914z"/> <path d="M87.268 0H7.059A7.06 7.06 0 0 0 0 7.059v80.207a7.06 7.06 0 0 0 7.059 7.06h80.208a7.06 7.06 0 0 0 7.058-7.06V7.059A7.06 7.06 0 0 0 87.268 0zm-1.572 68.244l-.099.326c-1.43 3.832-4.287 5.996-7.865 5.98-3.991-.016-6.286-2.022-6.286-2.022a219.368 219.368 0 0 1-12.8-10.948 123.98 123.98 0 0 0-6.965-.201c-9.52 0-17.71 1.154-24.36 3.432l-.773 2.041C22.54 77.067 17.005 78.59 14.062 78.59c-.33 0-.627-.02-.885-.047a5.452 5.452 0 0 1-1.078-.213l-.377-.146c-1.617-.795-2.652-2.021-3.105-3.594-.92-3.193 1.049-6.609 1.455-7.261 0 0 2.861-5.127 11.955-7.806 2.809-7.459 7.498-20.044 9.674-26.583-1.754-2.148-2.643-3.318-2.648-3.328-3.459-4.799-4.514-8.86-3.15-12.086 1.293-3.054 4.387-4.275 6.012-4.518.408-.064.83-.099 1.244-.099 2.223 0 4.143.953 5.402 2.684 2.109 2.897 2.396 7.874.885 15.216-.037.174-.084.377-.145.61C43.5 36.404 51.557 45.566 61.52 54.934c1.66.123 3.324.275 4.953.453 5.586.609 9.297 1.342 9.703 1.424.156.021 5.725.841 8.404 4.785 1.303 1.924 1.688 4.223 1.116 6.648z"/> <path d="M77.564 67.164c.746-.055 1.393-1.396.213-2.096-.023-.033-1.534-.734-8.09-1.79 4.088 2.861 6.562 3.968 7.877 3.886z"/> 
    </symbol>
    <symbol id="big-water-drop" viewBox="0 0 792 792">
       <path d="M665.335 486.777c-7.815-46.161-25.534-88.323-43.162-126.578-52.976-116.765-116.765-222.808-179.554-320.944l-7.815-13.721C423.991 8.814 411.269 0 396.549 0c-21.626 0-35.347 19.627-39.255 25.534v1L343.573 48.16c-24.534 39.255-50.068 80.508-74.602 121.671-38.255 64.789-86.324 151.113-121.671 243.343-11.813 30.441-22.535 60.881-23.535 94.229-3.907 86.324 27.442 159.018 92.23 215.901C266.063 767.466 329.852 792 395.549 792c96.138 0 183.552-49.068 233.529-132.485 33.349-54.974 46.07-113.856 36.257-172.738zm-67.697 154.111c-43.162 72.603-118.764 114.765-202.18 114.765-56.883 0-112.857-20.627-156.019-58.882-55.974-49.068-83.416-112.857-80.508-187.459 1-27.442 9.814-53.975 21.626-82.417 34.348-90.322 81.417-174.647 118.764-238.436 23.535-40.254 49.068-81.417 74.602-120.672l12.721-20.627c0-1 1-1 1-1.999 1.999-2.908 5.906-7.815 7.815-8.814 0 0 2.908 1 7.815 8.814l7.815 12.721c60.881 96.138 124.67 201.18 176.646 316.037 16.72 37.256 33.348 76.51 40.254 117.764 9.904 51.068-.91 101.045-30.351 149.205zm-184.551 21.535c0 9.814-7.815 17.628-17.628 17.628-89.323 0-160.926-72.603-160.926-160.926 0-9.814 7.815-17.628 17.628-17.628 9.814 0 17.628 7.815 17.628 17.628.999 68.696 56.974 124.67 125.669 124.67 9.814 0 17.629 8.814 17.629 18.628z"/> 
    </symbol>
    <symbol id="checked" viewBox="0 0 384.97 384.97">
       <path d="M192.485 0C86.173 0 0 86.173 0 192.485S86.173 384.97 192.485 384.97c106.3 0 192.485-86.185 192.485-192.485C384.97 86.173 298.785 0 192.485 0zm0 360.909c-93.018 0-168.424-75.406-168.424-168.424S99.467 24.061 192.485 24.061s168.424 75.406 168.424 168.424-75.406 168.424-168.424 168.424z"/> <path d="M280.306 125.031L156.538 247.692l-51.502-50.479c-4.74-4.704-12.439-4.704-17.179 0a11.931 11.931 0 0 0 0 17.011l60.139 58.936c4.932 4.343 12.307 4.824 17.179 0l132.321-131.118a11.952 11.952 0 0 0 0-17.011c-4.751-4.692-12.438-4.692-17.19 0z"/> 
    </symbol>
    <symbol id="diamond" viewBox="0 0 223.646 223.646">
       <path d="M111.823 0L16.622 111.823l95.201 111.823 95.202-111.823z"/> 
    </symbol>
    <symbol id="dollar-symbol" viewBox="0 0 484.184 484.184">
       <path d="M309.43 219.944c-19-10.5-39.2-18.5-59.2-26.8-11.6-4.8-22.7-10.4-32.5-18.2-19.3-15.4-15.6-40.4 7-50.3 6.4-2.8 13.1-3.7 19.9-4.1 26.2-1.4 51.1 3.4 74.8 14.8 11.8 5.7 15.7 3.9 19.7-8.4 4.2-13 7.7-26.2 11.6-39.3 2.6-8.8-.6-14.6-8.9-18.3-15.2-6.7-30.8-11.5-47.2-14.1-21.4-3.3-21.4-3.4-21.5-24.9-.1-30.3-.1-30.3-30.5-30.3-4.4 0-8.8-.1-13.2 0-14.2.4-16.6 2.9-17 17.2-.2 6.4 0 12.8-.1 19.3-.1 19-.2 18.7-18.4 25.3-44 16-71.2 46-74.1 94-2.6 42.5 19.6 71.2 54.5 92.1 21.5 12.9 45.3 20.5 68.1 30.6 8.9 3.9 17.4 8.4 24.8 14.6 21.9 18.1 17.9 48.2-8.1 59.6-13.9 6.1-28.6 7.6-43.7 5.7-23.3-2.9-45.6-9-66.6-19.9-12.3-6.4-15.9-4.7-20.1 8.6-3.6 11.5-6.8 23.1-10 34.7-4.3 15.6-2.7 19.3 12.2 26.6 19 9.2 39.3 13.9 60 17.2 16.2 2.6 16.7 3.3 16.9 20.1.1 7.6.1 15.3.2 22.9.1 9.6 4.7 15.2 14.6 15.4 11.2.2 22.5.2 33.7-.1 9.2-.2 13.9-5.2 13.9-14.5 0-10.4.5-20.9.1-31.3-.5-10.6 4.1-16 14.3-18.8 23.5-6.4 43.5-19 58.9-37.8 42.8-52 26.5-128.1-34.1-161.6z"/> 
    </symbol>
    <symbol id="facebook-logo-sq" viewBox="0 0 516.338 516.339">
       <path d="M497.446 0H18.893C8.458 0 .006 8.458.006 18.893v478.554c0 10.435 8.458 18.893 18.886 18.893h93.869V316.135c0-6.763-5.484-12.24-12.24-12.24H81.169c-6.756 0-12.24-5.477-12.24-12.239v-48.74c0-6.762 5.483-12.24 12.24-12.24h19.352c6.756 0 12.24-5.478 12.24-12.24v-31.842c0-31.279 7.387-54.958 22.172-71.028 14.78-16.078 39.101-24.113 72.963-24.113h46.279c6.762 0 12.24 5.478 12.24 12.24v48.74c0 6.763-5.478 12.24-12.24 12.24h-24.37c-6.702 0-12.075.557-16.114 1.677-4.039 1.12-6.964 3.139-8.764 6.059-1.805 2.925-2.968 5.888-3.482 8.893-.514 3.011-.771 7.264-.771 12.766v24.37c0 6.763 5.483 12.24 12.24 12.24h41.781c6.756 0 11.665 5.447 10.955 12.173l-5.165 48.875c-.71 6.72-6.763 12.172-13.525 12.172h-34.045c-6.757 0-12.24 5.478-12.24 12.24v200.204h296.771c10.435 0 18.887-8.458 18.887-18.893V18.893C516.333 8.458 507.88 0 497.446 0z"/> 
    </symbol>
    <symbol id="facebook-logo" viewBox="0 0 96.124 96.123">
       <path d="M72.089.02L59.624 0C45.62 0 36.57 9.285 36.57 23.656v10.907H24.037a1.96 1.96 0 0 0-1.96 1.961v15.803a1.96 1.96 0 0 0 1.96 1.96H36.57v39.876a1.96 1.96 0 0 0 1.96 1.96h16.352a1.96 1.96 0 0 0 1.96-1.96V54.287h14.654a1.96 1.96 0 0 0 1.96-1.96l.006-15.803a1.963 1.963 0 0 0-1.961-1.961H56.842v-9.246c0-4.444 1.059-6.7 6.848-6.7l8.397-.003a1.96 1.96 0 0 0 1.959-1.96V1.98A1.96 1.96 0 0 0 72.089.02z"/> 
    </symbol>
    <symbol id="google" viewBox="0 0 185 185">
       <path d="M0 92.5C0 41.495 41.495 0 92.5 0c20.6 0 40.095 6.626 56.379 19.162l-9.15 11.886C126.091 20.549 109.76 15 92.5 15 49.767 15 15 49.767 15 92.5S49.767 170 92.5 170c40.204 0 73.355-30.773 77.14-70H92.5V85H185v7.5c0 51.005-41.495 92.5-92.5 92.5S0 143.505 0 92.5z"/> 
    </symbol>
    <symbol id="group" viewBox="0 0 475.851 475.851">
       <path d="M151.549 145.274c0 23.39 9.145 50.385 24.462 72.214 17.389 24.78 39.376 38.427 61.911 38.427 22.534 0 44.521-13.647 61.91-38.428 15.317-21.828 24.462-48.824 24.462-72.213 0-47.626-38.746-86.372-86.372-86.372s-86.373 38.746-86.373 86.372zm86.373-71.372c39.354 0 71.372 32.018 71.372 71.372 0 20.118-8.33 44.487-21.74 63.598-14.29 20.364-32.38 32.043-49.632 32.043-17.252 0-35.342-11.679-49.632-32.043-13.41-19.11-21.741-43.479-21.741-63.598 0-39.355 32.018-71.372 71.373-71.372z"/> <path d="M302.372 239.167a7.502 7.502 0 0 0-8.52 1.461c-16.775 16.728-36.117 25.569-55.935 25.569-19.821 0-39.158-8.841-55.923-25.567a7.5 7.5 0 0 0-8.521-1.463c-25.254 12.022-46.628 30.829-61.811 54.388-15.596 24.2-23.84 52.277-23.84 81.195v.121c0 2.116.894 4.134 2.461 5.556 40.492 36.722 92.922 56.945 147.633 56.945s107.141-20.224 147.632-56.945a7.499 7.499 0 0 0 2.462-5.556v-.121c0-28.918-8.242-56.995-23.834-81.194-15.179-23.561-36.551-42.368-61.804-54.389zm-64.454 183.205c-49.861 0-97.685-18.023-135.057-50.827.583-24.896 7.956-48.986 21.411-69.865 12.741-19.77 30.322-35.823 51.058-46.676 18.746 17.157 40.285 26.193 62.588 26.193 22.3 0 43.842-9.035 62.598-26.193 20.734 10.853 38.313 26.906 51.053 46.676 13.452 20.877 20.823 44.968 21.406 69.865-37.373 32.804-85.197 50.827-135.057 50.827z"/> <path d="M455.077 243.89c-13.23-20.532-31.856-36.923-53.864-47.399a7.501 7.501 0 0 0-8.52 1.461c-14.312 14.271-30.79 21.815-47.654 21.815-9.142 0-18.184-2.205-26.873-6.553a7.5 7.5 0 0 0-6.712 13.414c10.793 5.401 22.093 8.139 33.586 8.139 19.335 0 38.004-7.737 54.288-22.437a116.088 116.088 0 0 1 43.141 39.685c11.445 17.763 17.756 38.243 18.338 59.416-18.524 16.158-40.553 28.449-63.91 35.634a7.5 7.5 0 0 0 4.41 14.338c26.509-8.154 51.435-22.362 72.082-41.088a7.499 7.499 0 0 0 2.462-5.556v-.105c-.001-25.204-7.185-49.674-20.774-70.764zM130.493 210.473c7.93 0 15.841-1.934 23.516-5.748a7.5 7.5 0 0 0-6.675-13.433c-5.582 2.774-11.248 4.18-16.841 4.18-14.541 0-29.836-9.914-41.964-27.2-11.449-16.318-18.562-37.112-18.562-54.266 0-33.375 27.152-60.527 60.526-60.527 15.752 0 30.67 6.022 42.006 16.958a7.499 7.499 0 0 0 10.604-.19 7.499 7.499 0 0 0-.19-10.604c-14.146-13.647-32.763-21.163-52.42-21.163-41.646 0-75.526 33.881-75.526 75.527 0 20.38 7.957 43.887 21.283 62.881 15.195 21.657 34.459 33.585 54.243 33.585z"/> <path d="M61.034 340.143a175.333 175.333 0 0 1-45.989-29.004c.582-21.112 6.875-41.53 18.291-59.243a115.795 115.795 0 0 1 43.01-39.566c16.239 14.662 34.856 22.376 54.139 22.376 11.587 0 22.969-2.785 33.829-8.277a7.501 7.501 0 0 0-6.77-13.386c-8.742 4.421-17.846 6.663-27.059 6.663-16.811 0-33.238-7.522-47.504-21.754a7.501 7.501 0 0 0-8.521-1.462c-21.954 10.451-40.534 26.8-53.733 47.28C7.167 264.811 0 289.221 0 314.362v.103c0 2.116.894 4.134 2.461 5.556 15.629 14.174 33.338 25.579 52.634 33.897a7.481 7.481 0 0 0 2.966.615 7.503 7.503 0 0 0 2.973-14.39zM69.854 351.003c-2.671 6.443 4.532 12.832 10.617 9.387 3.238-1.834 4.683-5.937 3.227-9.385-2.407-6.145-11.378-5.952-13.844-.002z"/> <path d="M83.698 351.005c.19.45-.18-.46 0 0zM303.345 70.438c11.336-10.936 26.254-16.958 42.006-16.958 33.374 0 60.526 27.152 60.526 60.527 0 17.154-7.112 37.947-18.563 54.266-12.128 17.286-27.424 27.2-41.964 27.2-5.593 0-11.259-1.406-16.841-4.18a7.5 7.5 0 0 0-6.676 13.433c7.675 3.814 15.587 5.748 23.517 5.748 19.783 0 39.048-11.927 54.243-33.585 13.327-18.994 21.283-42.501 21.283-62.881 0-41.646-33.881-75.527-75.526-75.527-19.657 0-38.273 7.516-52.42 21.163a7.5 7.5 0 0 0 10.415 10.794z"/> 
    </symbol>
    <symbol id="heart" viewBox="0 0 490.4 490.4">
       <path d="M229 381.2c4.4 4.4 10.1 6.8 16.3 6.8 6.2 0 12-2.4 16.3-6.8l96.3-96.3c15.7-15.7 24.4-36.6 24.4-58.7 0-22.2-8.6-43.1-24.3-58.8-15.7-15.7-36.6-24.3-58.7-24.3-20 0-38.9 7-54 19.9-15.1-13-34.1-20-54.1-20-22.2 0-43 8.6-58.7 24.3s-24.3 36.6-24.3 58.8 8.7 43 24.4 58.7l96.4 96.4zm-79.3-196.7c11.1-11.1 25.7-17.1 41.4-17.1s30.4 6.1 41.5 17.2l4 4c4.8 4.8 12.5 4.8 17.3 0l3.9-3.9c11.1-11.1 25.8-17.2 41.5-17.2 15.6 0 30.3 6.1 41.4 17.2 11.1 11.1 17.2 25.8 17.1 41.4 0 15.7-6.1 30.4-17.2 41.5l-95.3 95.3-95.5-95.5c-11.1-11.1-17.2-25.8-17.2-41.4 0-15.7 6.1-30.4 17.1-41.5z"/> <path d="M245.2 490.4c135.2 0 245.2-110 245.2-245.2S380.4 0 245.2 0 0 110 0 245.2s110 245.2 245.2 245.2zm0-465.9c121.7 0 220.7 99 220.7 220.7s-99 220.7-220.7 220.7-220.7-99-220.7-220.7 99-220.7 220.7-220.7z"/> 
    </symbol>
    <symbol id="leaf" viewBox="0 0 45.795 45.795">
       <path d="M43.564.076c-.9.03-22.171.841-31.812 10.482C.142 22.168 4.397 31.22 7.565 35.274L.611 42.229a2.089 2.089 0 0 0 2.954 2.953l6.944-6.945c2.807 2.238 6.027 3.41 9.424 3.41 5.107 0 10.257-2.558 15.303-7.604 9.643-9.644 10.453-30.91 10.485-31.812l.073-2.23-2.23.075zM32.283 31.09c-4.175 4.175-8.445 6.382-12.351 6.382-2.28 0-4.475-.759-6.445-2.212l4.922-4.922 8.384 2.019a2.087 2.087 0 0 0 2.517-1.541 2.087 2.087 0 0 0-1.542-2.52l-5.898-1.419 4.214-4.214 4.563 1.045a2.085 2.085 0 0 0 2.501-1.572 2.086 2.086 0 0 0-1.568-2.501l-2.01-.459 5.379-5.378a2.088 2.088 0 1 0-2.953-2.952l-5.403 5.404-.477-2.076a2.082 2.082 0 0 0-2.5-1.569 2.087 2.087 0 0 0-1.57 2.501l1.061 4.63-4.214 4.214-1.438-5.964a2.087 2.087 0 1 0-4.058.976l2.033 8.45-4.899 4.899c-3.974-5.367-2.518-12.108 4.171-18.798 6.767-6.766 21.086-8.626 26.688-9.105-.479 5.596-2.341 19.916-9.107 26.682z"/> 
    </symbol>
    <symbol id="list" viewBox="0 0 512 512">
       <path d="M431.279 0H80.721c-5.633 0-10.199 4.566-10.199 10.199v491.602c0 5.633 4.566 10.199 10.199 10.199h266.562c2.705 0 5.299-1.075 7.212-2.987l83.997-83.998a10.2 10.2 0 0 0 2.987-7.212V10.199c0-5.633-4.567-10.199-10.2-10.199zm-73.816 477.197l-.044-49.258 49.257.045-49.213 49.213zm63.618-69.598l-73.862-.067h-.009a10.197 10.197 0 0 0-10.199 10.209l.066 73.861H90.92V20.398h330.161v387.201z"/> <path d="M194.237 85.796c-3.983-3.983-10.441-3.983-14.424.001l-30.015 30.015-7.453-7.454c-3.983-3.983-10.441-3.983-14.424 0-3.983 3.983-3.984 10.441 0 14.424l14.664 14.665a10.2 10.2 0 0 0 14.424 0l37.227-37.227c3.983-3.982 3.983-10.441.001-14.424zM376.867 106.124h-3.576c-5.633 0-10.199 4.566-10.199 10.199s4.566 10.199 10.199 10.199h3.576c5.633 0 10.199-4.566 10.199-10.199s-4.566-10.199-10.199-10.199zM340.653 106.124H226.455c-5.633 0-10.199 4.566-10.199 10.199s4.566 10.199 10.199 10.199h114.198c5.633 0 10.199-4.566 10.199-10.199s-4.566-10.199-10.199-10.199zM194.237 184.532c-3.983-3.983-10.441-3.983-14.424.001l-30.015 30.015-7.453-7.454c-3.983-3.983-10.441-3.983-14.424 0-3.983 3.983-3.984 10.441 0 14.424l14.664 14.665a10.2 10.2 0 0 0 14.424 0l37.227-37.227c3.983-3.982 3.983-10.44.001-14.424zM376.868 204.859H226.455c-5.633 0-10.199 4.566-10.199 10.199s4.566 10.199 10.199 10.199h150.413c5.633 0 10.199-4.566 10.199-10.199s-4.566-10.199-10.199-10.199zM194.237 282.954c-3.983-3.983-10.441-3.983-14.424.001l-30.015 30.015-7.453-7.454c-3.983-3.984-10.441-3.983-14.424 0-3.983 3.983-3.984 10.441 0 14.424l14.664 14.665a10.2 10.2 0 0 0 14.424 0l37.227-37.227c3.983-3.982 3.983-10.44.001-14.424zM376.867 303.281H226.455c-5.633 0-10.199 4.566-10.199 10.199s4.566 10.199 10.199 10.199h150.413c5.632 0 10.198-4.566 10.198-10.199 0-5.632-4.566-10.199-10.199-10.199z"/> 
    </symbol>
    <symbol id="locked" viewBox="0 0 54 54">
       <path d="M43 20.113V14.5C43 6.505 35.822 0 27 0S11 6.505 11 14.5v5.613c-3.401.586-6 3.55-6 7.117v19.542C5 50.757 8.243 54 12.229 54h29.542C45.757 54 49 50.757 49 46.771V27.229c0-3.566-2.599-6.53-6-7.116zM13 14.5C13 7.607 19.28 2 27 2s14 5.607 14 12.5V20H13v-5.5zM31 38c0 2.206-1.794 4-4 4s-4-1.794-4-4v-6c0-2.206 1.794-4 4-4s4 1.794 4 4v6z"/> 
    </symbol>
    <symbol id="menu" viewBox="0 0 53 53">
       <path d="M2 13.5h49a2 2 0 0 0 0-4H2a2 2 0 0 0 0 4zM2 28.5h49a2 2 0 0 0 0-4H2a2 2 0 0 0 0 4zM2 43.5h49a2 2 0 0 0 0-4H2a2 2 0 0 0 0 4z"/> 
    </symbol>
    <symbol id="nike" viewBox="135.5 361.375 200 72">
       <path d="M159.23 431.966c-5.84-.232-10.618-1.83-14.354-4.798-.713-.567-2.412-2.267-2.982-2.984-1.515-1.905-2.545-3.759-3.232-5.816-2.114-6.332-1.026-14.641 3.112-23.76 3.543-7.807 9.01-15.55 18.548-26.274 1.405-1.578 5.589-6.193 5.616-6.193.01 0-.218.395-.505.876-2.48 4.154-4.602 9.047-5.758 13.283-1.857 6.797-1.633 12.63.656 17.153 1.579 3.116 4.286 5.815 7.33 7.307 5.329 2.611 13.131 2.827 22.659.632.656-.152 33.162-8.781 72.236-19.176a88696.433 88696.433 0 0 1 71.054-18.888c.011.009-90.78 38.859-137.911 59.014-7.464 3.191-9.46 3.997-12.969 5.229-8.97 3.15-17.005 4.653-23.5 4.395z"/> 
    </symbol>
    <symbol id="open-book" viewBox="0 0 297.001 297.001">
       <path d="M287.034 60.873l-20.819-.001V39.321a9.965 9.965 0 0 0-8.49-9.856c-.852-.128-21.134-3.074-45.557 1.37-27.227 4.954-48.941 17.171-63.668 35.64-14.728-18.469-36.442-30.686-63.668-35.64-24.424-4.443-44.706-1.498-45.557-1.37a9.967 9.967 0 0 0-8.49 9.856v21.551H9.966C4.463 60.872 0 65.335 0 70.839v187.805a9.966 9.966 0 0 0 13.244 9.412c.748-.259 75.431-25.747 131.12-.345a9.963 9.963 0 0 0 8.273 0c55.533-25.33 130.376.088 131.12.345a9.973 9.973 0 0 0 9.051-1.287 9.966 9.966 0 0 0 4.193-8.124V70.84c-.001-5.504-4.463-9.967-9.967-9.967zM19.933 245.309V80.805h10.852v132.726a9.968 9.968 0 0 0 3.458 7.539 9.972 9.972 0 0 0 7.969 2.319c.55-.08 43.846-6.024 75.478 15.679-38.965-6.663-77.963 1.044-97.757 6.241zm118.601-15.229c-13.932-12.588-32.079-21.1-53.702-25.034-10.406-1.894-20.06-2.446-27.78-2.446-2.292 0-4.414.049-6.333.126V48.473h-.001c19.155-.864 65.752 1.184 87.816 38.587v143.02zm19.932-143.019c21.985-37.243 68.655-39.384 87.816-38.563v154.228c-8.383-.338-20.62-.136-34.114 2.32-21.623 3.934-39.77 12.445-53.702 25.034V87.061zm20.811 152.013c31.636-21.716 74.955-15.766 75.495-15.686a9.965 9.965 0 0 0 11.443-9.857V80.806h10.852v164.503c-19.8-5.199-58.814-12.909-97.79-6.235z"/> 
    </symbol>
    <symbol id="quotation-mark" viewBox="0 0 349.078 349.078">
       <path d="M150.299 26.634v58.25c0 7.9-6.404 14.301-14.304 14.301-28.186 0-43.518 28.909-45.643 85.966h45.643c7.9 0 14.304 6.407 14.304 14.304v122.992c0 7.896-6.404 14.298-14.304 14.298H14.301C6.398 336.745 0 330.338 0 322.447V199.455c0-27.352 2.754-52.452 8.183-74.611 5.568-22.721 14.115-42.587 25.396-59.048 11.608-16.917 26.128-30.192 43.16-39.44C93.886 17.052 113.826 12.333 136 12.333c7.895 0 14.299 6.401 14.299 14.301zm184.474 72.552c7.896 0 14.305-6.407 14.305-14.301v-58.25c0-7.9-6.408-14.301-14.305-14.301-22.165 0-42.108 4.72-59.249 14.023-17.035 9.248-31.563 22.523-43.173 39.44-11.277 16.461-19.824 36.328-25.393 59.054-5.426 22.166-8.18 47.266-8.18 74.605v122.992c0 7.896 6.406 14.298 14.304 14.298h121.69c7.896 0 14.299-6.407 14.299-14.298V199.455c0-7.896-6.402-14.304-14.299-14.304H289.78c2.093-57.056 17.201-85.965 44.993-85.965z"/> 
    </symbol>
    <symbol id="slack-symbol" viewBox="0 0 31.444 31.443">
       <path d="M31.202 16.369a2.754 2.754 0 0 0-3.637-1.391l-1.325.594-3.396-7.591 1.325-.592a2.753 2.753 0 0 0-2.248-5.027l-1.324.593-.593-1.326a2.752 2.752 0 1 0-5.026 2.249l.593 1.325L7.98 8.598l-.592-1.325A2.753 2.753 0 1 0 2.362 9.52l.592 1.324-1.324.594a2.754 2.754 0 0 0 2.248 5.026l1.325-.594 3.394 7.592-1.325.592a2.754 2.754 0 0 0 2.248 5.028l1.324-.593.593 1.325a2.752 2.752 0 1 0 5.025-2.247l-.591-1.326 7.591-3.394.592 1.321a2.751 2.751 0 1 0 5.026-2.245l-.592-1.324 1.323-.594a2.75 2.75 0 0 0 1.391-3.636zm-17.579 4.846l-3.395-7.593 7.591-3.394 3.395 7.591-7.591 3.396z"/> 
    </symbol>
    <symbol id="spotify-logo-button" viewBox="0 0 508.52 508.52">
       <path d="M254.26 0C113.845 0 0 113.845 0 254.26s113.845 254.26 254.26 254.26 254.26-113.845 254.26-254.26S394.675 0 254.26 0zm117.436 403.288c-3.178 5.816-9.122 9.058-15.287 9.058a17.54 17.54 0 0 1-8.422-2.129c-40.713-22.438-86.957-34.293-133.677-34.293-28 0-55.651 4.163-82.126 12.363-9.217 2.86-19.006-2.288-21.835-11.537-2.86-9.185 2.288-28.7 11.537-31.592 29.844-9.249 60.959-13.921 92.455-13.921 52.568 0 104.66 13.349 150.522 38.616 8.454 4.608 11.537 25.013 6.833 33.435zm32.323-95.761c-3.623 7.024-10.742 18.338-18.084 18.338-3.21 0-6.388-.699-9.376-2.32-50.471-26.189-105.041-39.474-162.218-39.474-31.496 0-62.77 4.132-92.964 12.459-10.901 2.956-22.089-3.401-25.045-14.302-2.924-10.901 3.464-29.431 14.334-32.386a394.321 394.321 0 0 1 103.674-13.857c62.898 0 125.445 15.256 180.938 44.114 10.012 5.149 13.921 17.417 8.741 27.428zm13.507-76.691c-3.464 0-7.024-.795-10.361-2.447-60.228-30.034-125.096-45.226-192.761-45.226-35.279 0-70.43 4.291-104.533 12.713-12.522 3.083-25.14-4.513-28.223-17.004-3.115-12.459 4.513-27.555 17.004-30.638 37.726-9.376 76.659-14.111 115.72-14.111 74.975 0 146.867 16.877 213.578 50.121 11.537 5.753 16.241 19.737 10.488 31.242-4.13 8.167-12.33 15.35-20.912 15.35z"/> 
    </symbol>
    <symbol id="star" viewBox="0 0 49.94 49.94">
       <path d="M48.856 22.73a3.56 3.56 0 0 0 .906-3.671 3.56 3.56 0 0 0-2.892-2.438l-12.092-1.757a1.58 1.58 0 0 1-1.19-.865L28.182 3.043a3.56 3.56 0 0 0-3.212-1.996 3.56 3.56 0 0 0-3.211 1.996L16.352 14c-.23.467-.676.79-1.191.865L3.069 16.622A3.56 3.56 0 0 0 .177 19.06a3.56 3.56 0 0 0 .906 3.671l8.749 8.528c.373.364.544.888.456 1.4L8.224 44.701a3.506 3.506 0 0 0 .781 2.904c1.066 1.267 2.927 1.653 4.415.871l10.814-5.686a1.619 1.619 0 0 1 1.472 0l10.815 5.686a3.544 3.544 0 0 0 1.666.417c1.057 0 2.059-.47 2.748-1.288a3.505 3.505 0 0 0 .781-2.904l-2.065-12.042a1.582 1.582 0 0 1 .456-1.4l8.749-8.529z"/> 
    </symbol>
    <symbol id="twitter-logo-silhouette" viewBox="0 0 612 612">
       <path d="M612 116.258a250.714 250.714 0 0 1-72.088 19.772c25.929-15.527 45.777-40.155 55.184-69.411-24.322 14.379-51.169 24.82-79.775 30.48-22.907-24.437-55.49-39.658-91.63-39.658-69.334 0-125.551 56.217-125.551 125.513 0 9.828 1.109 19.427 3.251 28.606-104.326-5.24-196.835-55.223-258.75-131.174-10.823 18.51-16.98 40.078-16.98 63.101 0 43.559 22.181 81.993 55.835 104.479a125.556 125.556 0 0 1-56.867-15.756v1.568c0 60.806 43.291 111.554 100.693 123.104-10.517 2.83-21.607 4.398-33.08 4.398-8.107 0-15.947-.803-23.634-2.333 15.985 49.907 62.336 86.199 117.253 87.194-42.947 33.654-97.099 53.655-155.916 53.655-10.134 0-20.116-.612-29.944-1.721 55.567 35.681 121.536 56.485 192.438 56.485 230.948 0 357.188-191.291 357.188-357.188l-.421-16.253c24.666-17.593 46.005-39.697 62.794-64.861z"/> 
    </symbol>
    <symbol id="twitter" viewBox="0 0 512.002 512.002">
       <path d="M512.002 97.211c-18.84 8.354-39.082 14.001-60.33 16.54 21.686-13 38.342-33.585 46.186-58.115a210.29 210.29 0 0 1-66.705 25.49c-19.16-20.415-46.461-33.17-76.674-33.17-58.011 0-105.042 47.029-105.042 105.039 0 8.233.929 16.25 2.72 23.939-87.3-4.382-164.701-46.2-216.509-109.753-9.042 15.514-14.223 33.558-14.223 52.809 0 36.444 18.544 68.596 46.73 87.433a104.614 104.614 0 0 1-47.577-13.139c-.01.438-.01.878-.01 1.321 0 50.894 36.209 93.348 84.261 103a105.245 105.245 0 0 1-27.674 3.687c-6.769 0-13.349-.66-19.764-1.888 13.368 41.73 52.16 72.104 98.126 72.949-35.95 28.176-81.243 44.967-130.458 44.967-8.479 0-16.84-.496-25.058-1.471 46.486 29.807 101.701 47.197 161.021 47.197 193.211 0 298.868-160.062 298.868-298.872 0-4.554-.104-9.084-.305-13.59 20.526-14.809 38.335-33.309 52.417-54.373z"/> 
    </symbol>
    <symbol id="vk-social-network-logo" viewBox="0 0 548.358 548.358">
       <path d="M545.451 400.298c-.664-1.431-1.283-2.618-1.858-3.569-9.514-17.135-27.695-38.167-54.532-63.102l-.567-.571-.284-.28-.287-.287h-.288c-12.18-11.611-19.893-19.418-23.123-23.415-5.91-7.614-7.234-15.321-4.004-23.13 2.282-5.9 10.854-18.36 25.696-37.397 7.807-10.089 13.99-18.175 18.556-24.267 32.931-43.78 47.208-71.756 42.828-83.939l-1.701-2.847c-1.143-1.714-4.093-3.282-8.846-4.712-4.764-1.427-10.853-1.663-18.278-.712l-82.224.568c-1.332-.472-3.234-.428-5.712.144l-3.713.859-1.431.715-1.136.859c-.952.568-1.999 1.567-3.142 2.995-1.137 1.423-2.088 3.093-2.848 4.996-8.952 23.031-19.13 44.444-30.553 64.238-7.043 11.803-13.511 22.032-19.418 30.693-5.899 8.658-10.848 15.037-14.842 19.126-4 4.093-7.61 7.372-10.852 9.849-3.237 2.478-5.708 3.525-7.419 3.142-1.715-.383-3.33-.763-4.859-1.143-2.663-1.714-4.805-4.045-6.42-6.995-1.622-2.95-2.714-6.663-3.285-11.136-.568-4.476-.904-8.326-1-11.563-.089-3.233-.048-7.806.145-13.706.198-5.903.287-9.897.287-11.991 0-7.234.141-15.085.424-23.555.288-8.47.521-15.181.716-20.125.194-4.949.284-10.185.284-15.705s-.336-9.849-1-12.991a44.442 44.442 0 0 0-2.99-9.137c-1.335-2.95-3.289-5.232-5.853-6.852-2.569-1.618-5.763-2.902-9.564-3.856-10.089-2.283-22.936-3.518-38.547-3.71-35.401-.38-58.148 1.906-68.236 6.855-3.997 2.091-7.614 4.948-10.848 8.562-3.427 4.189-3.905 6.475-1.431 6.851 11.422 1.711 19.508 5.804 24.267 12.275l1.715 3.429c1.334 2.474 2.666 6.854 3.999 13.134 1.331 6.28 2.19 13.227 2.568 20.837.95 13.897.95 25.793 0 35.689-.953 9.9-1.853 17.607-2.712 23.127-.859 5.52-2.143 9.993-3.855 13.418-1.715 3.426-2.856 5.52-3.428 6.28-.571.76-1.047 1.239-1.425 1.427a21.387 21.387 0 0 1-7.71 1.431c-2.667 0-5.901-1.334-9.707-4-3.805-2.666-7.754-6.328-11.847-10.992-4.093-4.665-8.709-11.184-13.85-19.558-5.137-8.374-10.467-18.271-15.987-29.691l-4.567-8.282c-2.855-5.328-6.755-13.086-11.704-23.267-4.952-10.185-9.329-20.037-13.134-29.554-1.521-3.997-3.806-7.04-6.851-9.134l-1.429-.859c-.95-.76-2.475-1.567-4.567-2.427a30.301 30.301 0 0 0-6.567-1.854l-78.229.568c-7.994 0-13.418 1.811-16.274 5.428l-1.143 1.711c-.571.953-.859 2.475-.859 4.57 0 2.094.571 4.664 1.714 7.707 11.42 26.84 23.839 52.725 37.257 77.659 13.418 24.934 25.078 45.019 34.973 60.237 9.897 15.229 19.985 29.602 30.264 43.112 10.279 13.515 17.083 22.176 20.412 25.981 3.333 3.812 5.951 6.662 7.854 8.565l7.139 6.851c4.568 4.569 11.276 10.041 20.127 16.416 8.853 6.379 18.654 12.659 29.408 18.85 10.756 6.181 23.269 11.225 37.546 15.126 14.275 3.905 28.169 5.472 41.684 4.716h32.834c6.659-.575 11.704-2.669 15.133-6.283l1.136-1.431c.764-1.136 1.479-2.901 2.139-5.276.668-2.379 1-5 1-7.851-.195-8.183.428-15.558 1.852-22.124 1.423-6.564 3.045-11.513 4.859-14.846 1.813-3.33 3.859-6.14 6.136-8.418 2.282-2.283 3.908-3.666 4.862-4.142.948-.479 1.705-.804 2.276-.999 4.568-1.522 9.944-.048 16.136 4.429 6.187 4.473 11.99 9.996 17.418 16.56 5.425 6.57 11.943 13.941 19.555 22.124 7.617 8.186 14.277 14.271 19.985 18.274l5.708 3.426c3.812 2.286 8.761 4.38 14.853 6.283 6.081 1.902 11.409 2.378 15.984 1.427l73.087-1.14c7.229 0 12.854-1.197 16.844-3.572 3.998-2.379 6.373-5 7.139-7.851.764-2.854.805-6.092.145-9.712-.677-3.611-1.344-6.136-2.008-7.563z"/> 
    </symbol></svg>